HIERARCHY
ROOT Hips
{
    OFFSET 0.000000 0.000000 0.000000
    CHANNELS 6 Xposition Yposition Zposition Zrotation Xrotation Yrotation
    JOINT Spine
    {
        OFFSET -0.000000 14.517291 0.000000
        CHANNELS 3 Zrotation Xrotation Yrotation
        JOINT Spine1
        {
            OFFSET -0.000000 37.558300 0.000000
            CHANNELS 3 Zrotation Xrotation Yrotation
            JOINT Neck
            {
                OFFSET -0.000000 37.404057 3.400369
                CHANNELS 3 Zrotation Xrotation Yrotation
                JOINT Head
                {
                    OFFSET -0.000000 24.785618 -3.540803
                    CHANNELS 3 Zrotation Xrotation Yrotation
                    End Site
                    {
                        OFFSET -0.000000 35.408028 0.000000
                    }
                }
            }
            JOINT LeftShoulder
            {
                OFFSET 6.992933 33.973492 -0.192664
                CHANNELS 3 Zrotation Xrotation Yrotation
                JOINT LeftArm
                {
                    OFFSET 21.527611 0.000000 0.000000
                    CHANNELS 3 Zrotation Xrotation Yrotation
                    JOINT LeftForeArm
                    {
                        OFFSET 56.353916 0.000000 0.000000
                        CHANNELS 3 Zrotation Xrotation Yrotation
                        JOINT LeftHand
                        {
                            OFFSET 47.774071 0.000000 0.000000
                            CHANNELS 3 Zrotation Xrotation Yrotation
                            End Site
                            {
                                OFFSET 26.556021 0.000000 0.000000
                            }
                        }
                    }
                }
            }
            JOINT RightShoulder
            {
                OFFSET -7.065357 33.973492 -0.192664
                CHANNELS 3 Zrotation Xrotation Yrotation
                JOINT RightArm
                {
                    OFFSET -21.527611 0.000000 0.000000
                    CHANNELS 3 Zrotation Xrotation Yrotation
                    JOINT RightForeArm
                    {
                        OFFSET -56.353916 0.000000 0.000000
                        CHANNELS 3 Zrotation Xrotation Yrotation
                        JOINT RightHand
                        {
                            OFFSET -47.774071 0.000000 0.000000
                            CHANNELS 3 Zrotation Xrotation Yrotation
                            End Site
                            {
                                OFFSET -26.556021 0.000000 0.000000
                            }
                        }
                    }
                }
            }
        }
    }
    JOINT LeftUpLeg
    {
        OFFSET 17.704014 0.000000 0.000000
        CHANNELS 3 Zrotation Xrotation Yrotation
        JOINT LeftLeg
        {
            OFFSET -0.000000 -81.181816 0.000000
            CHANNELS 3 Zrotation Xrotation Yrotation
            JOINT LeftFoot
            {
                OFFSET -0.000000 -62.821102 0.000000
                CHANNELS 3 Zrotation Xrotation Yrotation
                JOINT LeftToeBase
                {
                    OFFSET -0.000000 -11.507608 26.556021
                    CHANNELS 3 Zrotation Xrotation Yrotation
                    End Site
                    {
                        OFFSET -0.000000 0.000000 7.081605
                    }
                }
            }
        }
    }
    JOINT RightUpLeg
    {
        OFFSET -17.704014 0.000000 0.000000
        CHANNELS 3 Zrotation Xrotation Yrotation
        JOINT RightLeg
        {
            OFFSET -0.000000 -81.181816 0.000000
            CHANNELS 3 Zrotation Xrotation Yrotation
            JOINT RightFoot
            {
                OFFSET -0.000000 -62.821102 0.000000
                CHANNELS 3 Zrotation Xrotation Yrotation
                JOINT RightToeBase
                {
                    OFFSET -0.000000 -11.507608 26.556021
                    CHANNELS 3 Zrotation Xrotation Yrotation
                    End Site
                    {
                        OFFSET -0.000000 0.000000 7.081605
                    }
                }
            }
        }
    }
}
MOTION
Frames:    6
Frame Time:    0.008333
-8.933291    160.954376    -92.019501    -8.821465    26.114079    38.172569    6.882919    6.203333    -2.089362    -8.365853    1.900951    -0.444118    23.689951    -8.438535    3.686110    -5.807912    -3.402839    -2.520476    15.138846    0.695833    -28.621506    -22.506214    17.788618    -81.904343    -13.915524    -14.366928    -68.273766    14.191529    -24.050196    -6.150553    -12.848399    -13.147805    2.024242    28.981276    -27.768387    79.098801    -0.398621    -10.552435    20.159012    -5.388629    -11.806860    28.099754    8.936777    -22.154676    1.048719    -7.209997    10.435649    -13.624793    -14.047017    -9.180185    43.807560    0.000000    0.000000    0.000000    -30.824533    -50.200863    -20.478769    12.025976    24.939066    -12.885939    -2.571132    10.338050    -16.035681    0.000000    0.000000    0.000000    
-9.027490    160.944229    -91.999138    -8.843013    26.215708    38.138065    6.865516    6.310660    -2.129596    -8.269268    1.880031    -0.459078    23.782015    -8.413159    3.734258    -5.920164    -3.359762    -2.503586    15.119697    0.758510    -28.568264    -22.438988    17.763580    -81.973610    -13.927519    -14.383348    -68.267014    14.274321    -24.074677    -6.136983    -12.837247    -13.121433    2.071295    28.806023    -27.679241    79.005516    -0.506449    -10.633085    20.184902    -5.414329    -11.872038    28.047785    8.952322    -22.205572    1.088867    -7.209834    10.354459    -13.576946    -14.117785    -9.137109    43.779537    0.000000    0.000000    0.000000    -30.892288    -50.335117    -20.610922    12.031431    24.986925    -12.866803    -2.603541    10.333741    -15.950135    0.000000    0.000000    0.000000    
-9.116653    160.928589    -91.983017    -8.856568    26.323856    38.102249    6.859851    6.369570    -2.131558    -8.229168    1.907172    -0.457478    23.777853    -8.424759    3.750030    -5.872669    -3.290655    -2.476970    15.145902    0.813932    -28.615120    -22.446743    17.665316    -81.983727    -13.938993    -14.323201    -68.241600    14.229372    -24.021830    -6.163263    -12.842885    -13.070856    2.066387    28.884357    -27.692751    79.052376    -0.496608    -10.580304    20.153374    -5.373843    -11.808011    27.978304    8.955837    -22.259256    1.153987    -7.202651    10.285413    -13.583690    -14.181482    -9.107927    43.771217    0.000000    0.000000    0.000000    -30.985815    -50.474983    -20.775263    12.036809    25.051119    -12.823504    -2.647002    10.326746    -15.877264    0.000000    0.000000    0.000000    
-9.211447    160.911743    -91.982117    -8.881308    26.450102    38.073406    6.852582    6.415833    -2.127198    -8.211617    1.926259    -0.454304    23.936718    -8.392982    3.795400    -6.040375    -3.286406    -2.488452    15.139318    0.817219    -28.629446    -22.424622    17.627995    -82.016266    -13.923440    -14.242252    -68.215256    14.252807    -23.939455    -6.223731    -12.803561    -12.975513    2.024482    28.865559    -27.700001    79.106255    -0.523647    -10.611661    20.148136    -5.381561    -11.837657    28.003443    8.953124    -22.345003    1.237917    -7.184656    10.237861    -13.611862    -14.230212    -9.089010    43.756695    0.000000    0.000000    0.000000    -31.101292    -50.649654    -20.941589    12.035304    25.137630    -12.781067    -2.650503    10.315025    -15.825575    0.000000    0.000000    0.000000    
-9.300916    160.891144    -91.981758    -8.910071    26.572178    38.058807    6.866827    6.487737    -2.153485    -8.207270    1.873595    -0.465354    23.889858    -8.444121    3.797019    -5.937678    -3.143850    -2.461988    15.149021    0.826923    -28.617306    -22.438833    17.642654    -82.051926    -13.900689    -14.207397    -68.208282    14.247436    -23.897114    -6.278953    -12.797683    -12.963804    2.039740    29.026184    -27.715599    79.150742    -0.423043    -10.506608    20.167953    -5.451903    -11.769770    28.045265    8.954156    -22.435881    1.295487    -7.183324    10.196093    -13.626633    -14.254274    -9.058369    43.736286    0.000000    0.000000    0.000000    -31.220615    -50.820183    -21.104382    12.034800    25.227423    -12.760283    -2.679651    10.306000    -15.768999    0.000000    0.000000    0.000000    
-9.389923    160.866104    -91.983597    -8.937529    26.681612    38.046864    6.845364    6.528103    -2.148629    -8.156248    1.868356    -0.464596    24.021532    -8.397468    3.834226    -6.099162    -3.112222    -2.469781    15.153770    0.876939    -28.698654    -22.412468    17.583611    -82.077751    -13.867928    -14.185417    -68.186966    14.212693    -23.861481    -6.376082    -12.750439    -12.944628    2.078928    28.859961    -27.655468    79.029854    -0.503644    -10.585945    20.197504    -5.337125    -11.806777    28.051243    8.958624    -22.525806    1.364561    -7.176165    10.180429    -13.676080    -14.301924    -9.077416    43.733135    0.000000    0.000000    0.000000    -31.327633    -50.980034    -21.213276    12.053894    25.304853    -12.765424    -2.686759    10.289316    -15.754052    0.000000    0.000000    0.000000    
